<?xml version="1.0" standalone="no"?><svg xmlns="http://www.w3.org/2000/svg" viewBox="0 0 1440 320"><path fill="#Ff9a2a" fill-opacity="0.96" d="M0,224L0,160L84.7,160L84.7,320L169.4,320L169.4,32L254.1,32L254.1,64L338.8,64L338.8,128L423.5,128L423.5,224L508.2,224L508.2,192L592.9,192L592.9,128L677.6,128L677.6,96L762.4,96L762.4,320L847.1,320L847.1,224L931.8,224L931.8,32L1016.5,32L1016.5,192L1101.2,192L1101.2,192L1185.9,192L1185.9,96L1270.6,96L1270.6,192L1355.3,192L1355.3,256L1440,256L1440,320L1355.3,320L1355.3,320L1270.6,320L1270.6,320L1185.9,320L1185.9,320L1101.2,320L1101.2,320L1016.5,320L1016.5,320L931.8,320L931.8,320L847.1,320L847.1,320L762.4,320L762.4,320L677.6,320L677.6,320L592.9,320L592.9,320L508.2,320L508.2,320L423.5,320L423.5,320L338.8,320L338.8,320L254.1,320L254.1,320L169.4,320L169.4,320L84.7,320L84.7,320L0,320L0,320Z"></path></svg>